solid OpenSCAD_Model
  facet normal 0 0 -1
    outer loop
      vertex 6.07116 -0.999908 2
      vertex 7.38509 -9.81262 2
      vertex 6.23504 -9.90036 2
    endloop
  endfacet
  facet normal 0 0 -1
    outer loop
      vertex 7.38509 -9.81262 2
      vertex 6.07116 -0.999908 2
      vertex 7.07107 -0.999908 2
    endloop
  endfacet
  facet normal 0 0 -1
    outer loop
      vertex 6.23504 -9.90036 2
      vertex 5.50887 -9.8143 2
      vertex 6.07116 -0.999908 2
    endloop
  endfacet
  facet normal 0 0 -1
    outer loop
      vertex 5.50887 -9.8143 2
      vertex 6.23504 -9.90036 2
      vertex 5.85219 -9.88007 2
    endloop
  endfacet
  facet normal 0 0 -1
    outer loop
      vertex 9.07104 0.999908 2
      vertex 17.3407 0.571594 2
      vertex 17.2858 -0.183716 2
    endloop
  endfacet
  facet normal 0 0 -1
    outer loop
      vertex 17.3407 0.571594 2
      vertex 9.07104 0.999908 2
      vertex 17.3279 0.967407 2
    endloop
  endfacet
  facet normal 0 0 -1
    outer loop
      vertex 17.3279 0.967407 2
      vertex 9.07104 0.999908 2
      vertex 17.285 1.34277 2
    endloop
  endfacet
  facet normal 0 0 -1
    outer loop
      vertex 9.07104 0 2
      vertex 17.2858 -0.183716 2
      vertex 17.176 -0.928955 2
    endloop
  endfacet
  facet normal -0 0 -1
    outer loop
      vertex 17.285 1.34277 2
      vertex 9.07104 0.999908 2
      vertex 17.2632 1.72272 2
    endloop
  endfacet
  facet normal 0 0 -1
    outer loop
      vertex 9.07104 0 2
      vertex 17.176 -0.928955 2
      vertex 16.9635 -1.91986 2
    endloop
  endfacet
  facet normal -0 0 -1
    outer loop
      vertex 17.2632 1.72272 2
      vertex 9.07104 0.999908 2
      vertex 17.121 2.77069 2
    endloop
  endfacet
  facet normal 0 0 -1
    outer loop
      vertex 9.07104 0 2
      vertex 16.9635 -1.91986 2
      vertex 16.9357 -2.21939 2
    endloop
  endfacet
  facet normal 0 0 -1
    outer loop
      vertex 16.1871 -4.37027 2
      vertex 16.9357 -2.21939 2
      vertex 16.7982 -3.11874 2
    endloop
  endfacet
  facet normal 0 0 -1
    outer loop
      vertex 17.2858 -0.183716 2
      vertex 9.07104 0 2
      vertex 9.07104 0.999908 2
    endloop
  endfacet
  facet normal 0 0 -1
    outer loop
      vertex 16.1871 -4.37027 2
      vertex 16.7982 -3.11874 2
      vertex 16.734 -3.36197 2
    endloop
  endfacet
  facet normal 0 -0 -1
    outer loop
      vertex 16.3595 4.99939 2
      vertex 16.9572 3.52295 2
      vertex 9.07104 0.999908 2
    endloop
  endfacet
  facet normal 0 0 -1
    outer loop
      vertex 16.9572 3.52295 2
      vertex 16.3595 4.99939 2
      vertex 16.741 4.2746 2
    endloop
  endfacet
  facet normal -0 0 -1
    outer loop
      vertex 16.9357 -2.21939 2
      vertex 16.1871 -4.37027 2
      vertex 9.07104 0 2
    endloop
  endfacet
  facet normal -0 0 -1
    outer loop
      vertex 17.121 2.77069 2
      vertex 9.07104 0.999908 2
      vertex 16.9572 3.52295 2
    endloop
  endfacet
  facet normal 0 0 -1
    outer loop
      vertex 9.07104 0 2
      vertex 16.1871 -4.37027 2
      vertex 15.6451 -5.22125 2
    endloop
  endfacet
  facet normal 0 0 -1
    outer loop
      vertex 9.07104 0 2
      vertex 15.6451 -5.22125 2
      vertex 15.3778 -5.75958 2
    endloop
  endfacet
  facet normal 0 0 -1
    outer loop
      vertex 16.741 4.2746 2
      vertex 16.3595 4.99939 2
      vertex 16.5645 4.66202 2
    endloop
  endfacet
  facet normal 0 0 -1
    outer loop
      vertex 14.6999 -6.78421 2
      vertex 15.3778 -5.75958 2
      vertex 14.9127 -6.54282 2
    endloop
  endfacet
  facet normal 0 0 -1
    outer loop
      vertex 14.4694 -7.01416 2
      vertex 15.3778 -5.75958 2
      vertex 14.6999 -6.78421 2
    endloop
  endfacet
  facet normal -0 0 -1
    outer loop
      vertex 16.3595 4.99939 2
      vertex 9.07104 0.999908 2
      vertex 15.7414 5.7872 2
    endloop
  endfacet
  facet normal -0 0 -1
    outer loop
      vertex 15.3778 -5.75958 2
      vertex 14.4694 -7.01416 2
      vertex 9.07104 0 2
    endloop
  endfacet
  facet normal -0 0 -1
    outer loop
      vertex 15.7414 5.7872 2
      vertex 9.07104 0.999908 2
      vertex 15.3014 6.26968 2
    endloop
  endfacet
  facet normal 0 0 -1
    outer loop
      vertex 9.07104 0 2
      vertex 14.4694 -7.01416 2
      vertex 13.9275 -7.4733 2
    endloop
  endfacet
  facet normal -0 0 -1
    outer loop
      vertex 15.3014 6.26968 2
      vertex 9.07104 0.999908 2
      vertex 14.6161 7.19376 2
    endloop
  endfacet
  facet normal 0 0 -1
    outer loop
      vertex 9.07104 0 2
      vertex 13.9275 -7.4733 2
      vertex 13.6252 -7.69394 2
    endloop
  endfacet
  facet normal -0 0 -1
    outer loop
      vertex 14.6161 7.19376 2
      vertex 9.07104 0.999908 2
      vertex 14.1183 7.77878 2
    endloop
  endfacet
  facet normal 0 0 -1
    outer loop
      vertex 9.07104 0 2
      vertex 13.6252 -7.69394 2
      vertex 12.7029 -8.28766 2
    endloop
  endfacet
  facet normal 0 -0 -1
    outer loop
      vertex 13.2526 8.48465 2
      vertex 14.1183 7.77878 2
      vertex 9.07104 0.999908 2
    endloop
  endfacet
  facet normal 0 0 -1
    outer loop
      vertex 9.07104 0 2
      vertex 12.7029 -8.28766 2
      vertex 12.1268 -8.58917 2
    endloop
  endfacet
  facet normal 0 0 -1
    outer loop
      vertex 14.1183 7.77878 2
      vertex 13.2526 8.48465 2
      vertex 13.8527 8.05847 2
    endloop
  endfacet
  facet normal 0 0 -1
    outer loop
      vertex 7.07107 -0.999908 2
      vertex 12.1268 -8.58917 2
      vertex 11.8013 -8.79395 2
    endloop
  endfacet
  facet normal -0 0 -1
    outer loop
      vertex 13.2526 8.48465 2
      vertex 9.07104 0.999908 2
      vertex 12.69 8.80325 2
    endloop
  endfacet
  facet normal -0 0 -1
    outer loop
      vertex 12.0503 9.27475 2
      vertex 9.07104 0.999908 2
      vertex 11.4523 9.68475 2
    endloop
  endfacet
  facet normal 0 0 -1
    outer loop
      vertex 7.07107 -0.999908 2
      vertex 11.8013 -8.79395 2
      vertex 11.1265 -9.16641 2
    endloop
  endfacet
  facet normal -0 0 -1
    outer loop
      vertex 12.69 8.80325 2
      vertex 9.07104 0.999908 2
      vertex 12.0503 9.27475 2
    endloop
  endfacet
  facet normal 0 0 -1
    outer loop
      vertex 10.0835 -9.58282 2
      vertex 11.1265 -9.16641 2
      vertex 10.4236 -9.4873 2
    endloop
  endfacet
  facet normal 0 -0 -1
    outer loop
      vertex 10.6384 10.0589 2
      vertex 11.4523 9.68475 2
      vertex 9.07104 0.999908 2
    endloop
  endfacet
  facet normal 0 0 -1
    outer loop
      vertex 9.71847 -9.65485 2
      vertex 11.1265 -9.16641 2
      vertex 10.0835 -9.58282 2
    endloop
  endfacet
  facet normal -0 0 -1
    outer loop
      vertex 11.1265 -9.16641 2
      vertex 9.71847 -9.65485 2
      vertex 7.07107 -0.999908 2
    endloop
  endfacet
  facet normal 0 0 -1
    outer loop
      vertex 11.4523 9.68475 2
      vertex 10.6384 10.0589 2
      vertex 11.1749 9.84299 2
    endloop
  endfacet
  facet normal -0 0 -1
    outer loop
      vertex 10.6384 10.0589 2
      vertex 9.07104 0.999908 2
      vertex 10.3693 10.1495 2
    endloop
  endfacet
  facet normal 0 0 -1
    outer loop
      vertex 7.07107 -0.999908 2
      vertex 9.71847 -9.65485 2
      vertex 8.63784 -9.80225 2
    endloop
  endfacet
  facet normal 0 0 -1
    outer loop
      vertex 7.07107 -0.999908 2
      vertex 8.63784 -9.80225 2
      vertex 8.29879 -9.82239 2
    endloop
  endfacet
  facet normal 0 0 -1
    outer loop
      vertex 7.07107 -0.999908 2
      vertex 8.29879 -9.82239 2
      vertex 7.38509 -9.81262 2
    endloop
  endfacet
  facet normal 0 0 -1
    outer loop
      vertex 12.1268 -8.58917 2
      vertex 7.07107 -0.999908 2
      vertex 9.07104 0 2
    endloop
  endfacet
  facet normal -0 0 -1
    outer loop
      vertex 9.07104 0 2
      vertex 7.07107 -0.999908 2
      vertex 7.07107 0 2
    endloop
  endfacet
  facet normal -0 0 -1
    outer loop
      vertex 10.3693 10.1495 2
      vertex 9.07104 0.999908 2
      vertex 9.46441 10.3273 2
    endloop
  endfacet
  facet normal 0 0 -1
    outer loop
      vertex 9.07104 0.999908 2
      vertex 8.54583 10.4185 2
      vertex 9.46441 10.3273 2
    endloop
  endfacet
  facet normal 0 0 -1
    outer loop
      vertex 9.07104 0.999908 2
      vertex 7.92983 10.43 2
      vertex 8.54583 10.4185 2
    endloop
  endfacet
  facet normal 0 0 -1
    outer loop
      vertex 9.07104 0.999908 2
      vertex 7.00789 10.372 2
      vertex 7.92983 10.43 2
    endloop
  endfacet
  facet normal 0 0 -1
    outer loop
      vertex 6.07116 0.999908 2
      vertex 7.00789 10.372 2
      vertex 9.07104 0.999908 2
    endloop
  endfacet
  facet normal 0 0 -1
    outer loop
      vertex 7.00789 10.372 2
      vertex 6.07116 0.999908 2
      vertex 6.10442 10.2347 2
    endloop
  endfacet
  facet normal 0 0 -1
    outer loop
      vertex 4.45373 -9.50348 2
      vertex 6.07116 -0.999908 2
      vertex 5.50887 -9.8143 2
    endloop
  endfacet
  facet normal 0 0 -1
    outer loop
      vertex 3.24279 -9.21051 2
      vertex 6.07116 -0.999908 2
      vertex 4.45373 -9.50348 2
    endloop
  endfacet
  facet normal 0 -0 -1
    outer loop
      vertex 5.22658 10.0209 2
      vertex 6.07116 0.999908 2
      vertex 4.37392 9.72092 2
    endloop
  endfacet
  facet normal 0 0 -1
    outer loop
      vertex 1.20437 -8.14316 2
      vertex 6.07116 -0.999908 2
      vertex 1.9966 -8.51776 2
    endloop
  endfacet
  facet normal 0 0 -1
    outer loop
      vertex 6.07116 0.999908 2
      vertex 5.22658 10.0209 2
      vertex 6.10442 10.2347 2
    endloop
  endfacet
  facet normal 0 0 -1
    outer loop
      vertex 2.7037 -8.96484 2
      vertex 6.07116 -0.999908 2
      vertex 3.24279 -9.21051 2
    endloop
  endfacet
  facet normal 0 0 -1
    outer loop
      vertex 2.7037 -8.96484 2
      vertex 3.24279 -9.21051 2
      vertex 2.9486 -9.10141 2
    endloop
  endfacet
  facet normal 0 -0 -1
    outer loop
      vertex 2.83004 9.05502 2
      vertex 6.07116 0.999908 2
      vertex 1.98806 8.5199 2
    endloop
  endfacet
  facet normal 0 0 -1
    outer loop
      vertex 6.07116 -0.999908 2
      vertex 2.7037 -8.96484 2
      vertex 1.9966 -8.51776 2
    endloop
  endfacet
  facet normal 0 0 -1
    outer loop
      vertex 6.07116 0.999908 2
      vertex 2.83004 9.05502 2
      vertex 4.37392 9.72092 2
    endloop
  endfacet
  facet normal 0 0 -1
    outer loop
      vertex 0.155325 -7.49481 2
      vertex 6.07116 -0.999908 2
      vertex 1.20437 -8.14316 2
    endloop
  endfacet
  facet normal 0 0 -1
    outer loop
      vertex 2.83004 9.05502 2
      vertex 1.98806 8.5199 2
      vertex 2.47024 8.8739 2
    endloop
  endfacet
  facet normal 0 0 -1
    outer loop
      vertex 1.20437 -8.14316 2
      vertex 1.9966 -8.51776 2
      vertex 1.7343 -8.41751 2
    endloop
  endfacet
  facet normal 0 0 -1
    outer loop
      vertex -0.397949 -7.05231 2
      vertex 6.07116 -0.999908 2
      vertex 0.155325 -7.49481 2
    endloop
  endfacet
  facet normal 0 0 -1
    outer loop
      vertex 6.07116 0.999908 2
      vertex 0.30303 7.1048 2
      vertex 1.98806 8.5199 2
    endloop
  endfacet
  facet normal 0 0 -1
    outer loop
      vertex -1.15479 -6.20163 2
      vertex 6.07116 -0.999908 2
      vertex -0.921478 -6.49887 2
    endloop
  endfacet
  facet normal 0 0 -1
    outer loop
      vertex 6.07116 0.999908 2
      vertex -0.250244 6.58173 2
      vertex 0.30303 7.1048 2
    endloop
  endfacet
  facet normal 0 0 -1
    outer loop
      vertex -0.677032 -6.77734 2
      vertex 6.07116 -0.999908 2
      vertex -0.397949 -7.05231 2
    endloop
  endfacet
  facet normal 0 0 -1
    outer loop
      vertex 6.07116 -0.999908 2
      vertex -0.677032 -6.77734 2
      vertex -0.921478 -6.49887 2
    endloop
  endfacet
  facet normal 0 0 -1
    outer loop
      vertex -1.57211 -5.76447 2
      vertex 6.07116 -0.999908 2
      vertex -1.15479 -6.20163 2
    endloop
  endfacet
  facet normal 0 0 -1
    outer loop
      vertex 6.07116 0.999908 2
      vertex -1.00723 5.73883 2
      vertex -0.250244 6.58173 2
    endloop
  endfacet
  facet normal 0 0 -1
    outer loop
      vertex -2.55341 -4.09531 2
      vertex 6.07116 -0.999908 2
      vertex -1.57211 -5.76447 2
    endloop
  endfacet
  facet normal 0 0 -1
    outer loop
      vertex -1.57211 -5.76447 2
      vertex -1.15479 -6.20163 2
      vertex -1.3681 -5.99915 2
    endloop
  endfacet
  facet normal 0 0 -1
    outer loop
      vertex -3.30276 0.647278 2
      vertex 6.07116 -0.999908 2
      vertex -3.08716 -1.81168 2
    endloop
  endfacet
  facet normal 0 0 -1
    outer loop
      vertex -2.99377 -2.10678 2
      vertex 6.07116 -0.999908 2
      vertex -2.76047 -3.35693 2
    endloop
  endfacet
  facet normal 0 0 -1
    outer loop
      vertex 6.07116 0.999908 2
      vertex -1.46286 5.14511 2
      vertex -1.00723 5.73883 2
    endloop
  endfacet
  facet normal 0 0 -1
    outer loop
      vertex -2.55341 -4.09531 2
      vertex -1.57211 -5.76447 2
      vertex -2.14569 -5.01923 2
    endloop
  endfacet
  facet normal 0 0 -1
    outer loop
      vertex -2.43805 -4.44061 2
      vertex -2.14569 -5.01923 2
      vertex -2.30423 -4.74792 2
    endloop
  endfacet
  facet normal 0 0 -1
    outer loop
      vertex 6.07116 0.999908 2
      vertex -2.06345 4.19037 2
      vertex -1.46286 5.14511 2
    endloop
  endfacet
  facet normal 0 0 -1
    outer loop
      vertex -2.14569 -5.01923 2
      vertex -2.43805 -4.44061 2
      vertex -2.55341 -4.09531 2
    endloop
  endfacet
  facet normal 0 0 -1
    outer loop
      vertex 6.07116 -0.999908 2
      vertex -2.55341 -4.09531 2
      vertex -2.76047 -3.35693 2
    endloop
  endfacet
  facet normal 0 0 -1
    outer loop
      vertex -3.08716 -1.81168 2
      vertex 6.07116 -0.999908 2
      vertex -2.99377 -2.10678 2
    endloop
  endfacet
  facet normal 0 0 -1
    outer loop
      vertex 6.07116 0.999908 2
      vertex -2.40936 3.5257 2
      vertex -2.06345 4.19037 2
    endloop
  endfacet
  facet normal 0 0 -1
    outer loop
      vertex 6.07116 0.999908 2
      vertex -2.70706 2.83401 2
      vertex -2.40936 3.5257 2
    endloop
  endfacet
  facet normal 0 0 -1
    outer loop
      vertex 6.07116 0.999908 2
      vertex -2.95639 2.12219 2
      vertex -2.70706 2.83401 2
    endloop
  endfacet
  facet normal 0 0 -1
    outer loop
      vertex 6.07116 -0.999908 2
      vertex -3.30276 0.647278 2
      vertex 6.07116 0.999908 2
    endloop
  endfacet
  facet normal 0 0 -1
    outer loop
      vertex 6.07116 0.999908 2
      vertex -3.15613 1.39313 2
      vertex -2.95639 2.12219 2
    endloop
  endfacet
  facet normal -0 0 -1
    outer loop
      vertex 6.07116 0.999908 2
      vertex -3.30276 0.647278 2
      vertex -3.15613 1.39313 2
    endloop
  endfacet
  facet normal 0 0 -1
    outer loop
      vertex -3.31543 -0.904083 2
      vertex -3.30276 0.647278 2
      vertex -3.08716 -1.81168 2
    endloop
  endfacet
  facet normal 0 0 -1
    outer loop
      vertex -3.31543 -0.904083 2
      vertex -3.35587 0.269165 2
      vertex -3.30276 0.647278 2
    endloop
  endfacet
  facet normal 0 0 -1
    outer loop
      vertex -3.35663 -0.57663 2
      vertex -3.35587 0.269165 2
      vertex -3.31543 -0.904083 2
    endloop
  endfacet
  facet normal 0 0 -1
    outer loop
      vertex -3.35587 0.269165 2
      vertex -3.35663 -0.57663 2
      vertex -3.37463 0.0112915 2
    endloop
  endfacet
  facet normal 0 0 1
    outer loop
      vertex 8.54583 10.4185 4
      vertex 9.07104 0.999908 4
      vertex 9.46441 10.3273 4
    endloop
  endfacet
  facet normal 0 0 1
    outer loop
      vertex 7.92983 10.43 4
      vertex 9.07104 0.999908 4
      vertex 8.54583 10.4185 4
    endloop
  endfacet
  facet normal -0 0 1
    outer loop
      vertex 7.00789 10.372 4
      vertex 9.07104 0.999908 4
      vertex 7.92983 10.43 4
    endloop
  endfacet
  facet normal 0 0 1
    outer loop
      vertex 6.07116 0.999908 4
      vertex 7.00789 10.372 4
      vertex 6.10442 10.2347 4
    endloop
  endfacet
  facet normal 0 0 1
    outer loop
      vertex 7.00789 10.372 4
      vertex 6.07116 0.999908 4
      vertex 9.07104 0.999908 4
    endloop
  endfacet
  facet normal -0 0 1
    outer loop
      vertex -3.30276 0.647278 4
      vertex 6.07116 -0.999908 4
      vertex 6.07116 0.999908 4
    endloop
  endfacet
  facet normal -0 0 1
    outer loop
      vertex 5.22658 10.0209 4
      vertex 6.07116 0.999908 4
      vertex 6.10442 10.2347 4
    endloop
  endfacet
  facet normal -0 0 1
    outer loop
      vertex 2.83004 9.05502 4
      vertex 6.07116 0.999908 4
      vertex 4.37392 9.72092 4
    endloop
  endfacet
  facet normal 0 0 1
    outer loop
      vertex 6.07116 0.999908 4
      vertex 5.22658 10.0209 4
      vertex 4.37392 9.72092 4
    endloop
  endfacet
  facet normal 0 0 1
    outer loop
      vertex 6.07116 -0.999908 4
      vertex 4.45373 -9.50348 4
      vertex 5.50887 -9.8143 4
    endloop
  endfacet
  facet normal 0 0 1
    outer loop
      vertex 6.07116 -0.999908 4
      vertex 5.50887 -9.8143 4
      vertex 5.85219 -9.88007 4
    endloop
  endfacet
  facet normal -0 0 1
    outer loop
      vertex 0.30303 7.1048 4
      vertex 6.07116 0.999908 4
      vertex 1.98806 8.5199 4
    endloop
  endfacet
  facet normal -0 0 1
    outer loop
      vertex -0.250244 6.58173 4
      vertex 6.07116 0.999908 4
      vertex 0.30303 7.1048 4
    endloop
  endfacet
  facet normal 0 0 1
    outer loop
      vertex 6.07116 0.999908 4
      vertex 2.83004 9.05502 4
      vertex 1.98806 8.5199 4
    endloop
  endfacet
  facet normal 0 -0 1
    outer loop
      vertex 2.7037 -8.96484 4
      vertex 6.07116 -0.999908 4
      vertex 1.9966 -8.51776 4
    endloop
  endfacet
  facet normal 0 0 1
    outer loop
      vertex 1.98806 8.5199 4
      vertex 2.83004 9.05502 4
      vertex 2.47024 8.8739 4
    endloop
  endfacet
  facet normal 0 0 1
    outer loop
      vertex 3.24279 -9.21051 4
      vertex 2.7037 -8.96484 4
      vertex 2.9486 -9.10141 4
    endloop
  endfacet
  facet normal 0 0 1
    outer loop
      vertex 6.07116 -0.999908 4
      vertex 2.7037 -8.96484 4
      vertex 3.24279 -9.21051 4
    endloop
  endfacet
  facet normal 0 0 1
    outer loop
      vertex 6.07116 -0.999908 4
      vertex 3.24279 -9.21051 4
      vertex 4.45373 -9.50348 4
    endloop
  endfacet
  facet normal -0 0 1
    outer loop
      vertex -1.00723 5.73883 4
      vertex 6.07116 0.999908 4
      vertex -0.250244 6.58173 4
    endloop
  endfacet
  facet normal -0 0 1
    outer loop
      vertex -1.46286 5.14511 4
      vertex 6.07116 0.999908 4
      vertex -1.00723 5.73883 4
    endloop
  endfacet
  facet normal 0 0 1
    outer loop
      vertex 6.07116 -0.999908 4
      vertex -2.99377 -2.10678 4
      vertex -2.76047 -3.35693 4
    endloop
  endfacet
  facet normal 0 0 1
    outer loop
      vertex 6.07116 -0.999908 4
      vertex 1.20437 -8.14316 4
      vertex 1.9966 -8.51776 4
    endloop
  endfacet
  facet normal 0 0 1
    outer loop
      vertex 1.9966 -8.51776 4
      vertex 1.20437 -8.14316 4
      vertex 1.7343 -8.41751 4
    endloop
  endfacet
  facet normal 0 0 1
    outer loop
      vertex 6.07116 -0.999908 4
      vertex -1.15479 -6.20163 4
      vertex -0.921478 -6.49887 4
    endloop
  endfacet
  facet normal 0 -0 1
    outer loop
      vertex -0.677032 -6.77734 4
      vertex 6.07116 -0.999908 4
      vertex -0.921478 -6.49887 4
    endloop
  endfacet
  facet normal 0 0 1
    outer loop
      vertex 6.07116 -0.999908 4
      vertex -0.397949 -7.05231 4
      vertex 0.155325 -7.49481 4
    endloop
  endfacet
  facet normal 0 0 1
    outer loop
      vertex 6.07116 -0.999908 4
      vertex -0.677032 -6.77734 4
      vertex -0.397949 -7.05231 4
    endloop
  endfacet
  facet normal 0 0 1
    outer loop
      vertex 6.07116 -0.999908 4
      vertex 0.155325 -7.49481 4
      vertex 1.20437 -8.14316 4
    endloop
  endfacet
  facet normal -0 0 1
    outer loop
      vertex -2.06345 4.19037 4
      vertex 6.07116 0.999908 4
      vertex -1.46286 5.14511 4
    endloop
  endfacet
  facet normal 0 -0 1
    outer loop
      vertex -2.55341 -4.09531 4
      vertex 6.07116 -0.999908 4
      vertex -2.76047 -3.35693 4
    endloop
  endfacet
  facet normal -0 0 1
    outer loop
      vertex -2.40936 3.5257 4
      vertex 6.07116 0.999908 4
      vertex -2.06345 4.19037 4
    endloop
  endfacet
  facet normal 0 0 1
    outer loop
      vertex 6.07116 -0.999908 4
      vertex -1.57211 -5.76447 4
      vertex -1.15479 -6.20163 4
    endloop
  endfacet
  facet normal 0 0 1
    outer loop
      vertex -1.15479 -6.20163 4
      vertex -1.57211 -5.76447 4
      vertex -1.3681 -5.99915 4
    endloop
  endfacet
  facet normal -0 0 1
    outer loop
      vertex -2.70706 2.83401 4
      vertex 6.07116 0.999908 4
      vertex -2.40936 3.5257 4
    endloop
  endfacet
  facet normal 0 0 1
    outer loop
      vertex 6.07116 -0.999908 4
      vertex -2.55341 -4.09531 4
      vertex -1.57211 -5.76447 4
    endloop
  endfacet
  facet normal 0 0 1
    outer loop
      vertex -2.14569 -5.01923 4
      vertex -2.43805 -4.44061 4
      vertex -2.30423 -4.74792 4
    endloop
  endfacet
  facet normal -0 0 1
    outer loop
      vertex -2.95639 2.12219 4
      vertex 6.07116 0.999908 4
      vertex -2.70706 2.83401 4
    endloop
  endfacet
  facet normal -0 -0 1
    outer loop
      vertex -2.43805 -4.44061 4
      vertex -2.14569 -5.01923 4
      vertex -2.55341 -4.09531 4
    endloop
  endfacet
  facet normal -0 0 1
    outer loop
      vertex -3.15613 1.39313 4
      vertex 6.07116 0.999908 4
      vertex -2.95639 2.12219 4
    endloop
  endfacet
  facet normal 0 0 1
    outer loop
      vertex -1.57211 -5.76447 4
      vertex -2.55341 -4.09531 4
      vertex -2.14569 -5.01923 4
    endloop
  endfacet
  facet normal 0 0 1
    outer loop
      vertex -3.30276 0.647278 4
      vertex 6.07116 0.999908 4
      vertex -3.15613 1.39313 4
    endloop
  endfacet
  facet normal 0 0 1
    outer loop
      vertex 6.07116 -0.999908 4
      vertex -3.08716 -1.81168 4
      vertex -2.99377 -2.10678 4
    endloop
  endfacet
  facet normal 0 0 1
    outer loop
      vertex 6.07116 -0.999908 4
      vertex -3.30276 0.647278 4
      vertex -3.08716 -1.81168 4
    endloop
  endfacet
  facet normal 0 0 1
    outer loop
      vertex -3.30276 0.647278 4
      vertex -3.31543 -0.904083 4
      vertex -3.08716 -1.81168 4
    endloop
  endfacet
  facet normal -0 0 1
    outer loop
      vertex -3.35587 0.269165 4
      vertex -3.31543 -0.904083 4
      vertex -3.30276 0.647278 4
    endloop
  endfacet
  facet normal 0 0 1
    outer loop
      vertex -3.35587 0.269165 4
      vertex -3.35663 -0.57663 4
      vertex -3.31543 -0.904083 4
    endloop
  endfacet
  facet normal 0 -0 1
    outer loop
      vertex -3.35663 -0.57663 4
      vertex -3.35587 0.269165 4
      vertex -3.37463 0.0112915 4
    endloop
  endfacet
  facet normal 0 0 1
    outer loop
      vertex 9.07104 0.999908 4
      vertex 17.3407 0.571594 4
      vertex 17.3279 0.967407 4
    endloop
  endfacet
  facet normal -0 0 1
    outer loop
      vertex 9.07104 0.999908 4
      vertex 17.3279 0.967407 4
      vertex 17.285 1.34277 4
    endloop
  endfacet
  facet normal 0 0 1
    outer loop
      vertex 9.07104 0.999908 4
      vertex 17.285 1.34277 4
      vertex 17.2632 1.72272 4
    endloop
  endfacet
  facet normal 0 0 1
    outer loop
      vertex 17.3407 0.571594 4
      vertex 9.07104 0.999908 4
      vertex 17.2858 -0.183716 4
    endloop
  endfacet
  facet normal 0 0 1
    outer loop
      vertex 9.07104 0.999908 4
      vertex 17.2632 1.72272 4
      vertex 17.121 2.77069 4
    endloop
  endfacet
  facet normal -0 0 1
    outer loop
      vertex 9.07104 0 4
      vertex 17.2858 -0.183716 4
      vertex 9.07104 0.999908 4
    endloop
  endfacet
  facet normal 0 0 1
    outer loop
      vertex 9.07104 0.999908 4
      vertex 17.121 2.77069 4
      vertex 16.9572 3.52295 4
    endloop
  endfacet
  facet normal 0 0 1
    outer loop
      vertex 17.2858 -0.183716 4
      vertex 9.07104 0 4
      vertex 17.176 -0.928955 4
    endloop
  endfacet
  facet normal 0 0 1
    outer loop
      vertex 17.176 -0.928955 4
      vertex 9.07104 0 4
      vertex 16.9635 -1.91986 4
    endloop
  endfacet
  facet normal 0 0 1
    outer loop
      vertex 16.3595 4.99939 4
      vertex 16.9572 3.52295 4
      vertex 16.741 4.2746 4
    endloop
  endfacet
  facet normal 0 0 1
    outer loop
      vertex 16.9635 -1.91986 4
      vertex 9.07104 0 4
      vertex 16.9357 -2.21939 4
    endloop
  endfacet
  facet normal 0 0 1
    outer loop
      vertex 16.3595 4.99939 4
      vertex 16.741 4.2746 4
      vertex 16.5645 4.66202 4
    endloop
  endfacet
  facet normal 0 0 1
    outer loop
      vertex 16.9572 3.52295 4
      vertex 16.3595 4.99939 4
      vertex 9.07104 0.999908 4
    endloop
  endfacet
  facet normal 0 -0 1
    outer loop
      vertex 16.1871 -4.37027 4
      vertex 16.9357 -2.21939 4
      vertex 9.07104 0 4
    endloop
  endfacet
  facet normal 0 0 1
    outer loop
      vertex 9.07104 0.999908 4
      vertex 16.3595 4.99939 4
      vertex 15.7414 5.7872 4
    endloop
  endfacet
  facet normal 0 0 1
    outer loop
      vertex 16.9357 -2.21939 4
      vertex 16.1871 -4.37027 4
      vertex 16.7982 -3.11874 4
    endloop
  endfacet
  facet normal 0 0 1
    outer loop
      vertex 16.1871 -4.37027 4
      vertex 9.07104 0 4
      vertex 15.6451 -5.22125 4
    endloop
  endfacet
  facet normal 0 0 1
    outer loop
      vertex 9.07104 0.999908 4
      vertex 15.7414 5.7872 4
      vertex 15.3014 6.26968 4
    endloop
  endfacet
  facet normal 0 0 1
    outer loop
      vertex 15.6451 -5.22125 4
      vertex 9.07104 0 4
      vertex 15.3778 -5.75958 4
    endloop
  endfacet
  facet normal 0 -0 1
    outer loop
      vertex 14.4694 -7.01416 4
      vertex 15.3778 -5.75958 4
      vertex 9.07104 0 4
    endloop
  endfacet
  facet normal 0 0 1
    outer loop
      vertex 9.07104 0.999908 4
      vertex 15.3014 6.26968 4
      vertex 14.6161 7.19376 4
    endloop
  endfacet
  facet normal 0 0 1
    outer loop
      vertex 15.3778 -5.75958 4
      vertex 14.6999 -6.78421 4
      vertex 14.9127 -6.54282 4
    endloop
  endfacet
  facet normal 0 0 1
    outer loop
      vertex 9.07104 0.999908 4
      vertex 14.6161 7.19376 4
      vertex 14.1183 7.77878 4
    endloop
  endfacet
  facet normal 0 0 1
    outer loop
      vertex 15.3778 -5.75958 4
      vertex 14.4694 -7.01416 4
      vertex 14.6999 -6.78421 4
    endloop
  endfacet
  facet normal 0 0 1
    outer loop
      vertex 13.2526 8.48465 4
      vertex 14.1183 7.77878 4
      vertex 13.8527 8.05847 4
    endloop
  endfacet
  facet normal 0 0 1
    outer loop
      vertex 14.4694 -7.01416 4
      vertex 9.07104 0 4
      vertex 13.9275 -7.4733 4
    endloop
  endfacet
  facet normal 0 0 1
    outer loop
      vertex 14.1183 7.77878 4
      vertex 13.2526 8.48465 4
      vertex 9.07104 0.999908 4
    endloop
  endfacet
  facet normal 0 0 1
    outer loop
      vertex 13.9275 -7.4733 4
      vertex 9.07104 0 4
      vertex 13.6252 -7.69394 4
    endloop
  endfacet
  facet normal 0 0 1
    outer loop
      vertex 9.07104 0.999908 4
      vertex 13.2526 8.48465 4
      vertex 12.69 8.80325 4
    endloop
  endfacet
  facet normal 0 0 1
    outer loop
      vertex 13.6252 -7.69394 4
      vertex 9.07104 0 4
      vertex 12.7029 -8.28766 4
    endloop
  endfacet
  facet normal 0 0 1
    outer loop
      vertex 9.07104 0.999908 4
      vertex 12.69 8.80325 4
      vertex 12.0503 9.27475 4
    endloop
  endfacet
  facet normal 0 0 1
    outer loop
      vertex 12.7029 -8.28766 4
      vertex 9.07104 0 4
      vertex 12.1268 -8.58917 4
    endloop
  endfacet
  facet normal 0 0 1
    outer loop
      vertex 9.07104 0.999908 4
      vertex 12.0503 9.27475 4
      vertex 11.4523 9.68475 4
    endloop
  endfacet
  facet normal 0 0 1
    outer loop
      vertex 10.6384 10.0589 4
      vertex 11.4523 9.68475 4
      vertex 11.1749 9.84299 4
    endloop
  endfacet
  facet normal 0 0 1
    outer loop
      vertex 16.7982 -3.11874 4
      vertex 16.1871 -4.37027 4
      vertex 16.734 -3.36197 4
    endloop
  endfacet
  facet normal 0 0 1
    outer loop
      vertex 11.4523 9.68475 4
      vertex 10.6384 10.0589 4
      vertex 9.07104 0.999908 4
    endloop
  endfacet
  facet normal -0 0 1
    outer loop
      vertex 7.07107 -0.999908 4
      vertex 12.1268 -8.58917 4
      vertex 9.07104 0 4
    endloop
  endfacet
  facet normal 0 0 1
    outer loop
      vertex 9.07104 0.999908 4
      vertex 10.6384 10.0589 4
      vertex 10.3693 10.1495 4
    endloop
  endfacet
  facet normal 0 0 1
    outer loop
      vertex 11.8013 -8.79395 4
      vertex 7.07107 -0.999908 4
      vertex 11.1265 -9.16641 4
    endloop
  endfacet
  facet normal 0 -0 1
    outer loop
      vertex 9.71847 -9.65485 4
      vertex 11.1265 -9.16641 4
      vertex 7.07107 -0.999908 4
    endloop
  endfacet
  facet normal 0 0 1
    outer loop
      vertex 9.07104 0.999908 4
      vertex 10.3693 10.1495 4
      vertex 9.46441 10.3273 4
    endloop
  endfacet
  facet normal 0 0 1
    outer loop
      vertex 12.1268 -8.58917 4
      vertex 7.07107 -0.999908 4
      vertex 11.8013 -8.79395 4
    endloop
  endfacet
  facet normal 0 0 1
    outer loop
      vertex 11.1265 -9.16641 4
      vertex 10.0835 -9.58282 4
      vertex 10.4236 -9.4873 4
    endloop
  endfacet
  facet normal 0 0 1
    outer loop
      vertex 11.1265 -9.16641 4
      vertex 9.71847 -9.65485 4
      vertex 10.0835 -9.58282 4
    endloop
  endfacet
  facet normal 0 0 1
    outer loop
      vertex 9.71847 -9.65485 4
      vertex 7.07107 -0.999908 4
      vertex 8.63784 -9.80225 4
    endloop
  endfacet
  facet normal 0 0 1
    outer loop
      vertex 8.63784 -9.80225 4
      vertex 7.07107 -0.999908 4
      vertex 8.29879 -9.82239 4
    endloop
  endfacet
  facet normal 0 0 1
    outer loop
      vertex 7.07107 -0.999908 4
      vertex 9.07104 0 4
      vertex 7.07107 0 4
    endloop
  endfacet
  facet normal 0 0 1
    outer loop
      vertex 8.29879 -9.82239 4
      vertex 7.07107 -0.999908 4
      vertex 7.38509 -9.81262 4
    endloop
  endfacet
  facet normal -0 0 1
    outer loop
      vertex 6.07116 -0.999908 4
      vertex 7.38509 -9.81262 4
      vertex 7.07107 -0.999908 4
    endloop
  endfacet
  facet normal 0 0 1
    outer loop
      vertex 7.38509 -9.81262 4
      vertex 6.07116 -0.999908 4
      vertex 6.23504 -9.90036 4
    endloop
  endfacet
  facet normal 0 0 1
    outer loop
      vertex 6.23504 -9.90036 4
      vertex 6.07116 -0.999908 4
      vertex 5.85219 -9.88007 4
    endloop
  endfacet
  facet normal 0.0760693 -0.997103 0
    outer loop
      vertex 6.23504 -9.90036 2
      vertex 7.38509 -9.81262 4
      vertex 6.23504 -9.90036 4
    endloop
  endfacet
  facet normal 0.0760693 -0.997103 0
    outer loop
      vertex 7.38509 -9.81262 4
      vertex 6.23504 -9.90036 2
      vertex 7.38509 -9.81262 2
    endloop
  endfacet
  facet normal -0.0106874 -0.999943 0
    outer loop
      vertex 7.38509 -9.81262 2
      vertex 8.29879 -9.82239 4
      vertex 7.38509 -9.81262 4
    endloop
  endfacet
  facet normal -0.0106874 -0.999943 -0
    outer loop
      vertex 8.29879 -9.82239 4
      vertex 7.38509 -9.81262 2
      vertex 8.29879 -9.82239 2
    endloop
  endfacet
  facet normal 0.0593014 -0.99824 0
    outer loop
      vertex 8.29879 -9.82239 2
      vertex 8.63784 -9.80225 4
      vertex 8.29879 -9.82239 4
    endloop
  endfacet
  facet normal 0.0593014 -0.99824 0
    outer loop
      vertex 8.63784 -9.80225 4
      vertex 8.29879 -9.82239 2
      vertex 8.63784 -9.80225 2
    endloop
  endfacet
  facet normal 0.135151 -0.990825 0
    outer loop
      vertex 8.63784 -9.80225 2
      vertex 9.71847 -9.65485 4
      vertex 8.63784 -9.80225 4
    endloop
  endfacet
  facet normal 0.135151 -0.990825 0
    outer loop
      vertex 9.71847 -9.65485 4
      vertex 8.63784 -9.80225 2
      vertex 9.71847 -9.65485 2
    endloop
  endfacet
  facet normal 0.193591 -0.981082 0
    outer loop
      vertex 9.71847 -9.65485 2
      vertex 10.0835 -9.58282 4
      vertex 9.71847 -9.65485 4
    endloop
  endfacet
  facet normal 0.193591 -0.981082 0
    outer loop
      vertex 10.0835 -9.58282 4
      vertex 9.71847 -9.65485 2
      vertex 10.0835 -9.58282 2
    endloop
  endfacet
  facet normal 0.270383 -0.962753 0
    outer loop
      vertex 10.0835 -9.58282 2
      vertex 10.4236 -9.4873 4
      vertex 10.0835 -9.58282 4
    endloop
  endfacet
  facet normal 0.270383 -0.962753 0
    outer loop
      vertex 10.4236 -9.4873 4
      vertex 10.0835 -9.58282 2
      vertex 10.4236 -9.4873 2
    endloop
  endfacet
  facet normal 0.41526 -0.909703 0
    outer loop
      vertex 10.4236 -9.4873 2
      vertex 11.1265 -9.16641 4
      vertex 10.4236 -9.4873 4
    endloop
  endfacet
  facet normal 0.41526 -0.909703 0
    outer loop
      vertex 11.1265 -9.16641 4
      vertex 10.4236 -9.4873 2
      vertex 11.1265 -9.16641 2
    endloop
  endfacet
  facet normal 0.483271 -0.875471 0
    outer loop
      vertex 11.1265 -9.16641 2
      vertex 11.8013 -8.79395 4
      vertex 11.1265 -9.16641 4
    endloop
  endfacet
  facet normal 0.483271 -0.875471 0
    outer loop
      vertex 11.8013 -8.79395 4
      vertex 11.1265 -9.16641 2
      vertex 11.8013 -8.79395 2
    endloop
  endfacet
  facet normal 0.532529 -0.846412 0
    outer loop
      vertex 11.8013 -8.79395 2
      vertex 12.1268 -8.58917 4
      vertex 11.8013 -8.79395 4
    endloop
  endfacet
  facet normal 0.532529 -0.846412 0
    outer loop
      vertex 12.1268 -8.58917 4
      vertex 11.8013 -8.79395 2
      vertex 12.1268 -8.58917 2
    endloop
  endfacet
  facet normal 0.463656 -0.886015 0
    outer loop
      vertex 12.1268 -8.58917 2
      vertex 12.7029 -8.28766 4
      vertex 12.1268 -8.58917 4
    endloop
  endfacet
  facet normal 0.463656 -0.886015 0
    outer loop
      vertex 12.7029 -8.28766 4
      vertex 12.1268 -8.58917 2
      vertex 12.7029 -8.28766 2
    endloop
  endfacet
  facet normal 0.541306 -0.840826 0
    outer loop
      vertex 12.7029 -8.28766 2
      vertex 13.6252 -7.69394 4
      vertex 12.7029 -8.28766 4
    endloop
  endfacet
  facet normal 0.541306 -0.840826 0
    outer loop
      vertex 13.6252 -7.69394 4
      vertex 12.7029 -8.28766 2
      vertex 13.6252 -7.69394 2
    endloop
  endfacet
  facet normal 0.589577 -0.807712 0
    outer loop
      vertex 13.6252 -7.69394 2
      vertex 13.9275 -7.4733 4
      vertex 13.6252 -7.69394 4
    endloop
  endfacet
  facet normal 0.589577 -0.807712 0
    outer loop
      vertex 13.9275 -7.4733 4
      vertex 13.6252 -7.69394 2
      vertex 13.9275 -7.4733 2
    endloop
  endfacet
  facet normal 0.646375 -0.763019 0
    outer loop
      vertex 13.9275 -7.4733 2
      vertex 14.4694 -7.01416 4
      vertex 13.9275 -7.4733 4
    endloop
  endfacet
  facet normal 0.646375 -0.763019 0
    outer loop
      vertex 14.4694 -7.01416 4
      vertex 13.9275 -7.4733 2
      vertex 14.4694 -7.01416 2
    endloop
  endfacet
  facet normal 0.706403 -0.70781 0
    outer loop
      vertex 14.4694 -7.01416 2
      vertex 14.6999 -6.78421 4
      vertex 14.4694 -7.01416 4
    endloop
  endfacet
  facet normal 0.706403 -0.70781 0
    outer loop
      vertex 14.6999 -6.78421 4
      vertex 14.4694 -7.01416 2
      vertex 14.6999 -6.78421 2
    endloop
  endfacet
  facet normal 0.750045 -0.661386 0
    outer loop
      vertex 14.6999 -6.78421 4
      vertex 14.9127 -6.54282 2
      vertex 14.9127 -6.54282 4
    endloop
  endfacet
  facet normal 0.750045 -0.661386 0
    outer loop
      vertex 14.9127 -6.54282 2
      vertex 14.6999 -6.78421 4
      vertex 14.6999 -6.78421 2
    endloop
  endfacet
  facet normal 0.859834 -0.510574 0
    outer loop
      vertex 14.9127 -6.54282 4
      vertex 15.3778 -5.75958 2
      vertex 15.3778 -5.75958 4
    endloop
  endfacet
  facet normal 0.859834 -0.510574 0
    outer loop
      vertex 15.3778 -5.75958 2
      vertex 14.9127 -6.54282 4
      vertex 14.9127 -6.54282 2
    endloop
  endfacet
  facet normal 0.895642 -0.444775 0
    outer loop
      vertex 15.3778 -5.75958 4
      vertex 15.6451 -5.22125 2
      vertex 15.6451 -5.22125 4
    endloop
  endfacet
  facet normal 0.895642 -0.444775 0
    outer loop
      vertex 15.6451 -5.22125 2
      vertex 15.3778 -5.75958 4
      vertex 15.3778 -5.75958 2
    endloop
  endfacet
  facet normal 0.843456 -0.537198 0
    outer loop
      vertex 15.6451 -5.22125 4
      vertex 16.1871 -4.37027 2
      vertex 16.1871 -4.37027 4
    endloop
  endfacet
  facet normal 0.843456 -0.537198 0
    outer loop
      vertex 16.1871 -4.37027 2
      vertex 15.6451 -5.22125 4
      vertex 15.6451 -5.22125 2
    endloop
  endfacet
  facet normal 0.879032 -0.476763 0
    outer loop
      vertex 16.1871 -4.37027 4
      vertex 16.734 -3.36197 2
      vertex 16.734 -3.36197 4
    endloop
  endfacet
  facet normal 0.879032 -0.476763 0
    outer loop
      vertex 16.734 -3.36197 2
      vertex 16.1871 -4.37027 4
      vertex 16.1871 -4.37027 2
    endloop
  endfacet
  facet normal 0.966846 -0.255359 0
    outer loop
      vertex 16.734 -3.36197 4
      vertex 16.7982 -3.11874 2
      vertex 16.7982 -3.11874 4
    endloop
  endfacet
  facet normal 0.966846 -0.255359 0
    outer loop
      vertex 16.7982 -3.11874 2
      vertex 16.734 -3.36197 4
      vertex 16.734 -3.36197 2
    endloop
  endfacet
  facet normal 0.988517 -0.151112 0
    outer loop
      vertex 16.7982 -3.11874 4
      vertex 16.9357 -2.21939 2
      vertex 16.9357 -2.21939 4
    endloop
  endfacet
  facet normal 0.988517 -0.151112 0
    outer loop
      vertex 16.9357 -2.21939 2
      vertex 16.7982 -3.11874 4
      vertex 16.7982 -3.11874 2
    endloop
  endfacet
  facet normal 0.995729 -0.0923193 0
    outer loop
      vertex 16.9357 -2.21939 4
      vertex 16.9635 -1.91986 2
      vertex 16.9635 -1.91986 4
    endloop
  endfacet
  facet normal 0.995729 -0.0923193 0
    outer loop
      vertex 16.9635 -1.91986 2
      vertex 16.9357 -2.21939 4
      vertex 16.9357 -2.21939 2
    endloop
  endfacet
  facet normal 0.977758 -0.209735 0
    outer loop
      vertex 16.9635 -1.91986 4
      vertex 17.176 -0.928955 2
      vertex 17.176 -0.928955 4
    endloop
  endfacet
  facet normal 0.977758 -0.209735 0
    outer loop
      vertex 17.176 -0.928955 2
      vertex 16.9635 -1.91986 4
      vertex 16.9635 -1.91986 2
    endloop
  endfacet
  facet normal 0.989337 -0.145646 0
    outer loop
      vertex 17.176 -0.928955 4
      vertex 17.2858 -0.183716 2
      vertex 17.2858 -0.183716 4
    endloop
  endfacet
  facet normal 0.989337 -0.145646 0
    outer loop
      vertex 17.2858 -0.183716 2
      vertex 17.176 -0.928955 4
      vertex 17.176 -0.928955 2
    endloop
  endfacet
  facet normal 0.997366 -0.0725357 0
    outer loop
      vertex 17.2858 -0.183716 4
      vertex 17.3407 0.571594 2
      vertex 17.3407 0.571594 4
    endloop
  endfacet
  facet normal 0.997366 -0.0725357 0
    outer loop
      vertex 17.3407 0.571594 2
      vertex 17.2858 -0.183716 4
      vertex 17.2858 -0.183716 2
    endloop
  endfacet
  facet normal 0.999476 0.0323655 0
    outer loop
      vertex 17.3407 0.571594 4
      vertex 17.3279 0.967407 2
      vertex 17.3279 0.967407 4
    endloop
  endfacet
  facet normal 0.999476 0.0323655 0
    outer loop
      vertex 17.3279 0.967407 2
      vertex 17.3407 0.571594 4
      vertex 17.3407 0.571594 2
    endloop
  endfacet
  facet normal 0.993539 0.11349 0
    outer loop
      vertex 17.3279 0.967407 4
      vertex 17.285 1.34277 2
      vertex 17.285 1.34277 4
    endloop
  endfacet
  facet normal 0.993539 0.11349 0
    outer loop
      vertex 17.285 1.34277 2
      vertex 17.3279 0.967407 4
      vertex 17.3279 0.967407 2
    endloop
  endfacet
  facet normal 0.998355 0.0573352 0
    outer loop
      vertex 17.285 1.34277 4
      vertex 17.2632 1.72272 2
      vertex 17.2632 1.72272 4
    endloop
  endfacet
  facet normal 0.998355 0.0573352 0
    outer loop
      vertex 17.2632 1.72272 2
      vertex 17.285 1.34277 4
      vertex 17.285 1.34277 2
    endloop
  endfacet
  facet normal 0.990918 0.134469 0
    outer loop
      vertex 17.2632 1.72272 4
      vertex 17.121 2.77069 2
      vertex 17.121 2.77069 4
    endloop
  endfacet
  facet normal 0.990918 0.134469 0
    outer loop
      vertex 17.121 2.77069 2
      vertex 17.2632 1.72272 4
      vertex 17.2632 1.72272 2
    endloop
  endfacet
  facet normal 0.977124 0.212668 0
    outer loop
      vertex 17.121 2.77069 4
      vertex 16.9572 3.52295 2
      vertex 16.9572 3.52295 4
    endloop
  endfacet
  facet normal 0.977124 0.212668 0
    outer loop
      vertex 16.9572 3.52295 2
      vertex 17.121 2.77069 4
      vertex 17.121 2.77069 2
    endloop
  endfacet
  facet normal 0.961029 0.276447 0
    outer loop
      vertex 16.9572 3.52295 4
      vertex 16.741 4.2746 2
      vertex 16.741 4.2746 4
    endloop
  endfacet
  facet normal 0.961029 0.276447 0
    outer loop
      vertex 16.741 4.2746 2
      vertex 16.9572 3.52295 4
      vertex 16.9572 3.52295 2
    endloop
  endfacet
  facet normal 0.909973 0.414667 0
    outer loop
      vertex 16.741 4.2746 4
      vertex 16.5645 4.66202 2
      vertex 16.5645 4.66202 4
    endloop
  endfacet
  facet normal 0.909973 0.414667 0
    outer loop
      vertex 16.5645 4.66202 2
      vertex 16.741 4.2746 4
      vertex 16.741 4.2746 2
    endloop
  endfacet
  facet normal 0.854683 0.51915 0
    outer loop
      vertex 16.5645 4.66202 4
      vertex 16.3595 4.99939 2
      vertex 16.3595 4.99939 4
    endloop
  endfacet
  facet normal 0.854683 0.51915 0
    outer loop
      vertex 16.3595 4.99939 2
      vertex 16.5645 4.66202 4
      vertex 16.5645 4.66202 2
    endloop
  endfacet
  facet normal 0.786736 0.61729 0
    outer loop
      vertex 16.3595 4.99939 4
      vertex 15.7414 5.7872 2
      vertex 15.7414 5.7872 4
    endloop
  endfacet
  facet normal 0.786736 0.61729 0
    outer loop
      vertex 15.7414 5.7872 2
      vertex 16.3595 4.99939 4
      vertex 16.3595 4.99939 2
    endloop
  endfacet
  facet normal 0.738839 0.673881 0
    outer loop
      vertex 15.7414 5.7872 4
      vertex 15.3014 6.26968 2
      vertex 15.3014 6.26968 4
    endloop
  endfacet
  facet normal 0.738839 0.673881 0
    outer loop
      vertex 15.3014 6.26968 2
      vertex 15.7414 5.7872 4
      vertex 15.7414 5.7872 2
    endloop
  endfacet
  facet normal 0.803235 0.595662 0
    outer loop
      vertex 15.3014 6.26968 4
      vertex 14.6161 7.19376 2
      vertex 14.6161 7.19376 4
    endloop
  endfacet
  facet normal 0.803235 0.595662 0
    outer loop
      vertex 14.6161 7.19376 2
      vertex 15.3014 6.26968 4
      vertex 15.3014 6.26968 2
    endloop
  endfacet
  facet normal 0.761635 0.648006 0
    outer loop
      vertex 14.6161 7.19376 4
      vertex 14.1183 7.77878 2
      vertex 14.1183 7.77878 4
    endloop
  endfacet
  facet normal 0.761635 0.648006 0
    outer loop
      vertex 14.1183 7.77878 2
      vertex 14.6161 7.19376 4
      vertex 14.6161 7.19376 2
    endloop
  endfacet
  facet normal 0.725069 0.688677 0
    outer loop
      vertex 14.1183 7.77878 4
      vertex 13.8527 8.05847 2
      vertex 13.8527 8.05847 4
    endloop
  endfacet
  facet normal 0.725069 0.688677 0
    outer loop
      vertex 13.8527 8.05847 2
      vertex 14.1183 7.77878 4
      vertex 14.1183 7.77878 2
    endloop
  endfacet
  facet normal 0.579 0.815327 -0
    outer loop
      vertex 13.8527 8.05847 2
      vertex 13.2526 8.48465 4
      vertex 13.8527 8.05847 4
    endloop
  endfacet
  facet normal 0.579 0.815327 0
    outer loop
      vertex 13.2526 8.48465 4
      vertex 13.8527 8.05847 2
      vertex 13.2526 8.48465 2
    endloop
  endfacet
  facet normal 0.49278 0.870154 -0
    outer loop
      vertex 13.2526 8.48465 2
      vertex 12.69 8.80325 4
      vertex 13.2526 8.48465 4
    endloop
  endfacet
  facet normal 0.49278 0.870154 0
    outer loop
      vertex 12.69 8.80325 4
      vertex 13.2526 8.48465 2
      vertex 12.69 8.80325 2
    endloop
  endfacet
  facet normal 0.593343 0.80495 -0
    outer loop
      vertex 12.69 8.80325 2
      vertex 12.0503 9.27475 4
      vertex 12.69 8.80325 4
    endloop
  endfacet
  facet normal 0.593343 0.80495 0
    outer loop
      vertex 12.0503 9.27475 4
      vertex 12.69 8.80325 2
      vertex 12.0503 9.27475 2
    endloop
  endfacet
  facet normal 0.565483 0.82476 -0
    outer loop
      vertex 12.0503 9.27475 2
      vertex 11.4523 9.68475 4
      vertex 12.0503 9.27475 4
    endloop
  endfacet
  facet normal 0.565483 0.82476 0
    outer loop
      vertex 11.4523 9.68475 4
      vertex 12.0503 9.27475 2
      vertex 11.4523 9.68475 2
    endloop
  endfacet
  facet normal 0.49547 0.868625 -0
    outer loop
      vertex 11.4523 9.68475 2
      vertex 11.1749 9.84299 4
      vertex 11.4523 9.68475 4
    endloop
  endfacet
  facet normal 0.49547 0.868625 0
    outer loop
      vertex 11.1749 9.84299 4
      vertex 11.4523 9.68475 2
      vertex 11.1749 9.84299 2
    endloop
  endfacet
  facet normal 0.373346 0.927692 -0
    outer loop
      vertex 11.1749 9.84299 2
      vertex 10.6384 10.0589 4
      vertex 11.1749 9.84299 4
    endloop
  endfacet
  facet normal 0.373346 0.927692 0
    outer loop
      vertex 10.6384 10.0589 4
      vertex 11.1749 9.84299 2
      vertex 10.6384 10.0589 2
    endloop
  endfacet
  facet normal 0.319127 0.947712 -0
    outer loop
      vertex 10.6384 10.0589 2
      vertex 10.3693 10.1495 4
      vertex 10.6384 10.0589 4
    endloop
  endfacet
  facet normal 0.319127 0.947712 0
    outer loop
      vertex 10.3693 10.1495 4
      vertex 10.6384 10.0589 2
      vertex 10.3693 10.1495 2
    endloop
  endfacet
  facet normal 0.192774 0.981243 -0
    outer loop
      vertex 10.3693 10.1495 2
      vertex 9.46441 10.3273 4
      vertex 10.3693 10.1495 4
    endloop
  endfacet
  facet normal 0.192774 0.981243 0
    outer loop
      vertex 9.46441 10.3273 4
      vertex 10.3693 10.1495 2
      vertex 9.46441 10.3273 2
    endloop
  endfacet
  facet normal 0.098849 0.995102 -0
    outer loop
      vertex 9.46441 10.3273 2
      vertex 8.54583 10.4185 4
      vertex 9.46441 10.3273 4
    endloop
  endfacet
  facet normal 0.098849 0.995102 0
    outer loop
      vertex 8.54583 10.4185 4
      vertex 9.46441 10.3273 2
      vertex 8.54583 10.4185 2
    endloop
  endfacet
  facet normal 0.0185749 0.999827 -0
    outer loop
      vertex 8.54583 10.4185 2
      vertex 7.92983 10.43 4
      vertex 8.54583 10.4185 4
    endloop
  endfacet
  facet normal 0.0185749 0.999827 0
    outer loop
      vertex 7.92983 10.43 4
      vertex 8.54583 10.4185 2
      vertex 7.92983 10.43 2
    endloop
  endfacet
  facet normal -0.0627691 0.998028 0
    outer loop
      vertex 7.92983 10.43 2
      vertex 7.00789 10.372 4
      vertex 7.92983 10.43 4
    endloop
  endfacet
  facet normal -0.0627691 0.998028 0
    outer loop
      vertex 7.00789 10.372 4
      vertex 7.92983 10.43 2
      vertex 7.00789 10.372 2
    endloop
  endfacet
  facet normal -0.150275 0.988644 0
    outer loop
      vertex 7.00789 10.372 2
      vertex 6.10442 10.2347 4
      vertex 7.00789 10.372 4
    endloop
  endfacet
  facet normal -0.150275 0.988644 0
    outer loop
      vertex 6.10442 10.2347 4
      vertex 7.00789 10.372 2
      vertex 6.10442 10.2347 2
    endloop
  endfacet
  facet normal -0.23661 0.971605 0
    outer loop
      vertex 6.10442 10.2347 2
      vertex 5.22658 10.0209 4
      vertex 6.10442 10.2347 4
    endloop
  endfacet
  facet normal -0.23661 0.971605 0
    outer loop
      vertex 5.22658 10.0209 4
      vertex 6.10442 10.2347 2
      vertex 5.22658 10.0209 2
    endloop
  endfacet
  facet normal -0.331884 0.94332 0
    outer loop
      vertex 5.22658 10.0209 2
      vertex 4.37392 9.72092 4
      vertex 5.22658 10.0209 4
    endloop
  endfacet
  facet normal -0.331884 0.94332 0
    outer loop
      vertex 4.37392 9.72092 4
      vertex 5.22658 10.0209 2
      vertex 4.37392 9.72092 2
    endloop
  endfacet
  facet normal -0.396043 0.918232 0
    outer loop
      vertex 4.37392 9.72092 2
      vertex 2.83004 9.05502 4
      vertex 4.37392 9.72092 4
    endloop
  endfacet
  facet normal -0.396043 0.918232 0
    outer loop
      vertex 2.83004 9.05502 4
      vertex 4.37392 9.72092 2
      vertex 2.83004 9.05502 2
    endloop
  endfacet
  facet normal -0.449636 0.893212 0
    outer loop
      vertex 2.83004 9.05502 2
      vertex 2.47024 8.8739 4
      vertex 2.83004 9.05502 4
    endloop
  endfacet
  facet normal -0.449636 0.893212 0
    outer loop
      vertex 2.47024 8.8739 4
      vertex 2.83004 9.05502 2
      vertex 2.47024 8.8739 2
    endloop
  endfacet
  facet normal -0.591806 0.80608 0
    outer loop
      vertex 2.47024 8.8739 2
      vertex 1.98806 8.5199 4
      vertex 2.47024 8.8739 4
    endloop
  endfacet
  facet normal -0.591806 0.80608 0
    outer loop
      vertex 1.98806 8.5199 4
      vertex 2.47024 8.8739 2
      vertex 1.98806 8.5199 2
    endloop
  endfacet
  facet normal -0.643106 0.765777 0
    outer loop
      vertex 1.98806 8.5199 2
      vertex 0.30303 7.1048 4
      vertex 1.98806 8.5199 4
    endloop
  endfacet
  facet normal -0.643106 0.765777 0
    outer loop
      vertex 0.30303 7.1048 4
      vertex 1.98806 8.5199 2
      vertex 0.30303 7.1048 2
    endloop
  endfacet
  facet normal -0.686995 0.726663 0
    outer loop
      vertex 0.30303 7.1048 2
      vertex -0.250244 6.58173 4
      vertex 0.30303 7.1048 4
    endloop
  endfacet
  facet normal -0.686995 0.726663 0
    outer loop
      vertex -0.250244 6.58173 4
      vertex 0.30303 7.1048 2
      vertex -0.250244 6.58173 2
    endloop
  endfacet
  facet normal -0.744004 0.668176 0
    outer loop
      vertex -1.00723 5.73883 2
      vertex -0.250244 6.58173 4
      vertex -0.250244 6.58173 2
    endloop
  endfacet
  facet normal -0.744004 0.668176 0
    outer loop
      vertex -0.250244 6.58173 4
      vertex -1.00723 5.73883 2
      vertex -1.00723 5.73883 4
    endloop
  endfacet
  facet normal -0.793321 0.608804 0
    outer loop
      vertex -1.46286 5.14511 2
      vertex -1.00723 5.73883 4
      vertex -1.00723 5.73883 2
    endloop
  endfacet
  facet normal -0.793321 0.608804 0
    outer loop
      vertex -1.00723 5.73883 4
      vertex -1.46286 5.14511 2
      vertex -1.46286 5.14511 4
    endloop
  endfacet
  facet normal -0.846452 0.532465 0
    outer loop
      vertex -2.06345 4.19037 2
      vertex -1.46286 5.14511 4
      vertex -1.46286 5.14511 2
    endloop
  endfacet
  facet normal -0.846452 0.532465 0
    outer loop
      vertex -1.46286 5.14511 4
      vertex -2.06345 4.19037 2
      vertex -2.06345 4.19037 4
    endloop
  endfacet
  facet normal -0.88706 0.461654 0
    outer loop
      vertex -2.40936 3.5257 2
      vertex -2.06345 4.19037 4
      vertex -2.06345 4.19037 2
    endloop
  endfacet
  facet normal -0.88706 0.461654 0
    outer loop
      vertex -2.06345 4.19037 4
      vertex -2.40936 3.5257 2
      vertex -2.40936 3.5257 4
    endloop
  endfacet
  facet normal -0.918536 0.395337 0
    outer loop
      vertex -2.70706 2.83401 2
      vertex -2.40936 3.5257 4
      vertex -2.40936 3.5257 2
    endloop
  endfacet
  facet normal -0.918536 0.395337 0
    outer loop
      vertex -2.40936 3.5257 4
      vertex -2.70706 2.83401 2
      vertex -2.70706 2.83401 4
    endloop
  endfacet
  facet normal -0.943779 0.330576 0
    outer loop
      vertex -2.95639 2.12219 2
      vertex -2.70706 2.83401 4
      vertex -2.70706 2.83401 2
    endloop
  endfacet
  facet normal -0.943779 0.330576 0
    outer loop
      vertex -2.70706 2.83401 4
      vertex -2.95639 2.12219 2
      vertex -2.95639 2.12219 4
    endloop
  endfacet
  facet normal -0.96446 0.264227 0
    outer loop
      vertex -3.15613 1.39313 2
      vertex -2.95639 2.12219 4
      vertex -2.95639 2.12219 2
    endloop
  endfacet
  facet normal -0.96446 0.264227 0
    outer loop
      vertex -2.95639 2.12219 4
      vertex -3.15613 1.39313 2
      vertex -3.15613 1.39313 4
    endloop
  endfacet
  facet normal -0.981216 0.192911 0
    outer loop
      vertex -3.30276 0.647278 2
      vertex -3.15613 1.39313 4
      vertex -3.15613 1.39313 2
    endloop
  endfacet
  facet normal -0.981216 0.192911 0
    outer loop
      vertex -3.15613 1.39313 4
      vertex -3.30276 0.647278 2
      vertex -3.30276 0.647278 4
    endloop
  endfacet
  facet normal -0.990282 0.139071 0
    outer loop
      vertex -3.35587 0.269165 2
      vertex -3.30276 0.647278 4
      vertex -3.30276 0.647278 2
    endloop
  endfacet
  facet normal -0.990282 0.139071 0
    outer loop
      vertex -3.30276 0.647278 4
      vertex -3.35587 0.269165 2
      vertex -3.35587 0.269165 4
    endloop
  endfacet
  facet normal -0.997362 0.0725891 0
    outer loop
      vertex -3.37463 0.0112915 2
      vertex -3.35587 0.269165 4
      vertex -3.35587 0.269165 2
    endloop
  endfacet
  facet normal -0.997362 0.0725891 0
    outer loop
      vertex -3.35587 0.269165 4
      vertex -3.37463 0.0112915 2
      vertex -3.37463 0.0112915 4
    endloop
  endfacet
  facet normal -0.999531 -0.0306111 0
    outer loop
      vertex -3.35663 -0.57663 2
      vertex -3.37463 0.0112915 4
      vertex -3.37463 0.0112915 2
    endloop
  endfacet
  facet normal -0.999531 -0.0306111 0
    outer loop
      vertex -3.37463 0.0112915 4
      vertex -3.35663 -0.57663 2
      vertex -3.35663 -0.57663 4
    endloop
  endfacet
  facet normal -0.992178 -0.124831 0
    outer loop
      vertex -3.31543 -0.904083 2
      vertex -3.35663 -0.57663 4
      vertex -3.35663 -0.57663 2
    endloop
  endfacet
  facet normal -0.992178 -0.124831 0
    outer loop
      vertex -3.35663 -0.57663 4
      vertex -3.31543 -0.904083 2
      vertex -3.31543 -0.904083 4
    endloop
  endfacet
  facet normal -0.969796 -0.243916 0
    outer loop
      vertex -3.08716 -1.81168 2
      vertex -3.31543 -0.904083 4
      vertex -3.31543 -0.904083 2
    endloop
  endfacet
  facet normal -0.969796 -0.243916 0
    outer loop
      vertex -3.31543 -0.904083 4
      vertex -3.08716 -1.81168 2
      vertex -3.08716 -1.81168 4
    endloop
  endfacet
  facet normal -0.953404 -0.301698 0
    outer loop
      vertex -2.99377 -2.10678 2
      vertex -3.08716 -1.81168 4
      vertex -3.08716 -1.81168 2
    endloop
  endfacet
  facet normal -0.953404 -0.301698 0
    outer loop
      vertex -3.08716 -1.81168 4
      vertex -2.99377 -2.10678 2
      vertex -2.99377 -2.10678 4
    endloop
  endfacet
  facet normal -0.983028 -0.183455 0
    outer loop
      vertex -2.76047 -3.35693 2
      vertex -2.99377 -2.10678 4
      vertex -2.99377 -2.10678 2
    endloop
  endfacet
  facet normal -0.983028 -0.183455 0
    outer loop
      vertex -2.99377 -2.10678 4
      vertex -2.76047 -3.35693 2
      vertex -2.76047 -3.35693 4
    endloop
  endfacet
  facet normal -0.962856 -0.270014 0
    outer loop
      vertex -2.55341 -4.09531 2
      vertex -2.76047 -3.35693 4
      vertex -2.76047 -3.35693 2
    endloop
  endfacet
  facet normal -0.962856 -0.270014 0
    outer loop
      vertex -2.76047 -3.35693 4
      vertex -2.55341 -4.09531 2
      vertex -2.55341 -4.09531 4
    endloop
  endfacet
  facet normal -0.948474 -0.316856 0
    outer loop
      vertex -2.43805 -4.44061 2
      vertex -2.55341 -4.09531 4
      vertex -2.55341 -4.09531 2
    endloop
  endfacet
  facet normal -0.948474 -0.316856 0
    outer loop
      vertex -2.55341 -4.09531 4
      vertex -2.43805 -4.44061 2
      vertex -2.43805 -4.44061 4
    endloop
  endfacet
  facet normal -0.916846 -0.399242 0
    outer loop
      vertex -2.30423 -4.74792 2
      vertex -2.43805 -4.44061 4
      vertex -2.43805 -4.44061 2
    endloop
  endfacet
  facet normal -0.916846 -0.399242 0
    outer loop
      vertex -2.43805 -4.44061 4
      vertex -2.30423 -4.74792 2
      vertex -2.30423 -4.74792 4
    endloop
  endfacet
  facet normal -0.863391 -0.504535 0
    outer loop
      vertex -2.14569 -5.01923 2
      vertex -2.30423 -4.74792 4
      vertex -2.30423 -4.74792 2
    endloop
  endfacet
  facet normal -0.863391 -0.504535 0
    outer loop
      vertex -2.30423 -4.74792 4
      vertex -2.14569 -5.01923 2
      vertex -2.14569 -5.01923 4
    endloop
  endfacet
  facet normal -0.792461 -0.609922 0
    outer loop
      vertex -1.57211 -5.76447 2
      vertex -2.14569 -5.01923 4
      vertex -2.14569 -5.01923 2
    endloop
  endfacet
  facet normal -0.792461 -0.609922 0
    outer loop
      vertex -2.14569 -5.01923 4
      vertex -1.57211 -5.76447 2
      vertex -1.57211 -5.76447 4
    endloop
  endfacet
  facet normal -0.754701 -0.656069 0
    outer loop
      vertex -1.3681 -5.99915 2
      vertex -1.57211 -5.76447 4
      vertex -1.57211 -5.76447 2
    endloop
  endfacet
  facet normal -0.754701 -0.656069 0
    outer loop
      vertex -1.57211 -5.76447 4
      vertex -1.3681 -5.99915 2
      vertex -1.3681 -5.99915 4
    endloop
  endfacet
  facet normal -0.688449 -0.725284 0
    outer loop
      vertex -1.3681 -5.99915 2
      vertex -1.15479 -6.20163 4
      vertex -1.3681 -5.99915 4
    endloop
  endfacet
  facet normal -0.688449 -0.725284 -0
    outer loop
      vertex -1.15479 -6.20163 4
      vertex -1.3681 -5.99915 2
      vertex -1.15479 -6.20163 2
    endloop
  endfacet
  facet normal -0.786627 -0.617429 0
    outer loop
      vertex -0.921478 -6.49887 2
      vertex -1.15479 -6.20163 4
      vertex -1.15479 -6.20163 2
    endloop
  endfacet
  facet normal -0.786627 -0.617429 0
    outer loop
      vertex -1.15479 -6.20163 4
      vertex -0.921478 -6.49887 2
      vertex -0.921478 -6.49887 4
    endloop
  endfacet
  facet normal -0.75153 -0.659699 0
    outer loop
      vertex -0.677032 -6.77734 2
      vertex -0.921478 -6.49887 4
      vertex -0.921478 -6.49887 2
    endloop
  endfacet
  facet normal -0.75153 -0.659699 0
    outer loop
      vertex -0.921478 -6.49887 4
      vertex -0.677032 -6.77734 2
      vertex -0.677032 -6.77734 4
    endloop
  endfacet
  facet normal -0.701829 -0.712345 0
    outer loop
      vertex -0.677032 -6.77734 2
      vertex -0.397949 -7.05231 4
      vertex -0.677032 -6.77734 4
    endloop
  endfacet
  facet normal -0.701829 -0.712345 -0
    outer loop
      vertex -0.397949 -7.05231 4
      vertex -0.677032 -6.77734 2
      vertex -0.397949 -7.05231 2
    endloop
  endfacet
  facet normal -0.624597 -0.780948 0
    outer loop
      vertex -0.397949 -7.05231 2
      vertex 0.155325 -7.49481 4
      vertex -0.397949 -7.05231 4
    endloop
  endfacet
  facet normal -0.624597 -0.780948 -0
    outer loop
      vertex 0.155325 -7.49481 4
      vertex -0.397949 -7.05231 2
      vertex 0.155325 -7.49481 2
    endloop
  endfacet
  facet normal -0.525733 -0.85065 0
    outer loop
      vertex 0.155325 -7.49481 2
      vertex 1.20437 -8.14316 4
      vertex 0.155325 -7.49481 4
    endloop
  endfacet
  facet normal -0.525733 -0.85065 -0
    outer loop
      vertex 1.20437 -8.14316 4
      vertex 0.155325 -7.49481 2
      vertex 1.20437 -8.14316 2
    endloop
  endfacet
  facet normal -0.45975 -0.888048 0
    outer loop
      vertex 1.20437 -8.14316 2
      vertex 1.7343 -8.41751 4
      vertex 1.20437 -8.14316 4
    endloop
  endfacet
  facet normal -0.45975 -0.888048 -0
    outer loop
      vertex 1.7343 -8.41751 4
      vertex 1.20437 -8.14316 2
      vertex 1.7343 -8.41751 2
    endloop
  endfacet
  facet normal -0.357012 -0.9341 0
    outer loop
      vertex 1.7343 -8.41751 2
      vertex 1.9966 -8.51776 4
      vertex 1.7343 -8.41751 4
    endloop
  endfacet
  facet normal -0.357012 -0.9341 -0
    outer loop
      vertex 1.9966 -8.51776 4
      vertex 1.7343 -8.41751 2
      vertex 1.9966 -8.51776 2
    endloop
  endfacet
  facet normal -0.534418 -0.84522 0
    outer loop
      vertex 1.9966 -8.51776 2
      vertex 2.7037 -8.96484 4
      vertex 1.9966 -8.51776 4
    endloop
  endfacet
  facet normal -0.534418 -0.84522 -0
    outer loop
      vertex 2.7037 -8.96484 4
      vertex 1.9966 -8.51776 2
      vertex 2.7037 -8.96484 2
    endloop
  endfacet
  facet normal -0.487028 -0.873386 0
    outer loop
      vertex 2.7037 -8.96484 2
      vertex 2.9486 -9.10141 4
      vertex 2.7037 -8.96484 4
    endloop
  endfacet
  facet normal -0.487028 -0.873386 -0
    outer loop
      vertex 2.9486 -9.10141 4
      vertex 2.7037 -8.96484 2
      vertex 2.9486 -9.10141 2
    endloop
  endfacet
  facet normal -0.34771 -0.937602 0
    outer loop
      vertex 2.9486 -9.10141 2
      vertex 3.24279 -9.21051 4
      vertex 2.9486 -9.10141 4
    endloop
  endfacet
  facet normal -0.34771 -0.937602 -0
    outer loop
      vertex 3.24279 -9.21051 4
      vertex 2.9486 -9.10141 2
      vertex 3.24279 -9.21051 2
    endloop
  endfacet
  facet normal -0.235151 -0.971959 0
    outer loop
      vertex 3.24279 -9.21051 2
      vertex 4.45373 -9.50348 4
      vertex 3.24279 -9.21051 4
    endloop
  endfacet
  facet normal -0.235151 -0.971959 -0
    outer loop
      vertex 4.45373 -9.50348 4
      vertex 3.24279 -9.21051 2
      vertex 4.45373 -9.50348 2
    endloop
  endfacet
  facet normal -0.282572 -0.959246 0
    outer loop
      vertex 4.45373 -9.50348 2
      vertex 5.50887 -9.8143 4
      vertex 4.45373 -9.50348 4
    endloop
  endfacet
  facet normal -0.282572 -0.959246 -0
    outer loop
      vertex 5.50887 -9.8143 4
      vertex 4.45373 -9.50348 2
      vertex 5.50887 -9.8143 2
    endloop
  endfacet
  facet normal -0.188135 -0.982143 0
    outer loop
      vertex 5.50887 -9.8143 2
      vertex 5.85219 -9.88007 4
      vertex 5.50887 -9.8143 4
    endloop
  endfacet
  facet normal -0.188135 -0.982143 -0
    outer loop
      vertex 5.85219 -9.88007 4
      vertex 5.50887 -9.8143 2
      vertex 5.85219 -9.88007 2
    endloop
  endfacet
  facet normal -0.0529348 -0.998598 0
    outer loop
      vertex 5.85219 -9.88007 2
      vertex 6.23504 -9.90036 4
      vertex 5.85219 -9.88007 4
    endloop
  endfacet
  facet normal -0.0529348 -0.998598 -0
    outer loop
      vertex 6.23504 -9.90036 4
      vertex 5.85219 -9.88007 2
      vertex 6.23504 -9.90036 2
    endloop
  endfacet
  facet normal 0 1 -0
    outer loop
      vertex 9.07104 0 2
      vertex 7.07107 0 4
      vertex 9.07104 0 4
    endloop
  endfacet
  facet normal 0 1 0
    outer loop
      vertex 7.07107 0 4
      vertex 9.07104 0 2
      vertex 7.07107 0 2
    endloop
  endfacet
  facet normal -1 0 0
    outer loop
      vertex 9.07104 0 2
      vertex 9.07104 0.999908 4
      vertex 9.07104 0.999908 2
    endloop
  endfacet
  facet normal -1 -0 0
    outer loop
      vertex 9.07104 0.999908 4
      vertex 9.07104 0 2
      vertex 9.07104 0 4
    endloop
  endfacet
  facet normal 0 -1 0
    outer loop
      vertex 6.07116 0.999908 2
      vertex 9.07104 0.999908 4
      vertex 6.07116 0.999908 4
    endloop
  endfacet
  facet normal 0 -1 -0
    outer loop
      vertex 9.07104 0.999908 4
      vertex 6.07116 0.999908 2
      vertex 9.07104 0.999908 2
    endloop
  endfacet
  facet normal 1 -0 0
    outer loop
      vertex 6.07116 -0.999908 4
      vertex 6.07116 0.999908 2
      vertex 6.07116 0.999908 4
    endloop
  endfacet
  facet normal 1 0 0
    outer loop
      vertex 6.07116 0.999908 2
      vertex 6.07116 -0.999908 4
      vertex 6.07116 -0.999908 2
    endloop
  endfacet
  facet normal 0 1 -0
    outer loop
      vertex 7.07107 -0.999908 2
      vertex 6.07116 -0.999908 4
      vertex 7.07107 -0.999908 4
    endloop
  endfacet
  facet normal 0 1 0
    outer loop
      vertex 6.07116 -0.999908 4
      vertex 7.07107 -0.999908 2
      vertex 6.07116 -0.999908 2
    endloop
  endfacet
  facet normal -1 0 0
    outer loop
      vertex 7.07107 -0.999908 2
      vertex 7.07107 0 4
      vertex 7.07107 0 2
    endloop
  endfacet
  facet normal -1 -0 0
    outer loop
      vertex 7.07107 0 4
      vertex 7.07107 -0.999908 2
      vertex 7.07107 -0.999908 4
    endloop
  endfacet
endsolid OpenSCAD_Model
